<?xml version="1.0" encoding="UTF-8" standalone="no"?>
<!-- Generator: Adobe Illustrator 14.0.0, SVG Export Plug-In . SVG Version: 6.00 Build 43363)  -->

<svg
   xmlns:dc="http://purl.org/dc/elements/1.1/"
   xmlns:cc="http://creativecommons.org/ns#"
   xmlns:rdf="http://www.w3.org/1999/02/22-rdf-syntax-ns#"
   xmlns:svg="http://www.w3.org/2000/svg"
   xmlns="http://www.w3.org/2000/svg"
   xmlns:sodipodi="http://sodipodi.sourceforge.net/DTD/sodipodi-0.dtd"
   xmlns:inkscape="http://www.inkscape.org/namespaces/inkscape"
   version="1.1"
   id="Layer_1"
   x="0px"
   y="0px"
   width="52.631981"
   height="34.939781"
   viewBox="0 0 52.631982 34.939784"
   enable-background="new 0 0 1024 768"
   xml:space="preserve"
   inkscape:version="0.91 r13725"
   sodipodi:docname="learning-layers.svg"><metadata
     id="metadata31"><rdf:RDF><cc:Work
         rdf:about=""><dc:format>image/svg+xml</dc:format><dc:type
           rdf:resource="http://purl.org/dc/dcmitype/StillImage" /><dc:title></dc:title></cc:Work></rdf:RDF></metadata><defs
     id="defs29" /><sodipodi:namedview
     pagecolor="#ffffff"
     bordercolor="#666666"
     borderopacity="1"
     objecttolerance="10"
     gridtolerance="10"
     guidetolerance="10"
     inkscape:pageopacity="0"
     inkscape:pageshadow="2"
     inkscape:window-width="800"
     inkscape:window-height="637"
     id="namedview27"
     showgrid="false"
     fit-margin-top="0"
     fit-margin-left="0"
     fit-margin-right="0"
     fit-margin-bottom="0"
     inkscape:zoom="1.1796875"
     inkscape:cx="105.63688"
     inkscape:cy="11.51665"
     inkscape:window-x="625"
     inkscape:window-y="277"
     inkscape:window-maximized="0"
     inkscape:current-layer="Layer_1" /><g
     id="g3342"
     transform="matrix(0.15955758,0,0,0.15955758,-3.1177294e-7,5.7172731e-7)"><polygon
       transform="translate(-112.72301,-271.37985)"
       style="opacity:0.8;fill:#358aa5"
       id="polygon7"
       points="113.819,408.716 279.298,482.963 442.585,408.716 278.202,359.675 " /><polygon
       transform="translate(-112.72301,-271.37985)"
       style="opacity:0.8;fill:#267084"
       id="polygon9"
       points="113.819,408.716 113.819,414.195 278.202,490.359 442.585,414.744 442.585,408.716 278.202,482.471 " /><g
       transform="translate(-112.72301,-271.37985)"
       id="g11"><g
         id="g13"><path
           style="opacity:0.8;fill:#76af54"
           inkscape:connector-curvature="0"
           id="path15"
           d="m 113.819,344.672 c 55.16,24.749 110.319,60.093 165.479,95.365 54.429,-14.363 108.858,-28.797 163.287,-53.546 -54.794,-16.347 -109.589,-43.149 -164.383,-69.951 -54.794,5.893 -109.588,11.785 -164.383,28.132 z" /><path
           style="opacity:0.8;fill:#668d4c"
           inkscape:connector-curvature="0"
           id="path17"
           d="m 113.819,344.672 c 0,1.827 0,3.653 0,5.479 54.794,25.388 109.588,61.231 164.383,97.073 54.794,-14.75 109.589,-29.5 164.383,-54.706 0,-2.009 0,-4.019 0,-6.027 -54.794,24.585 -109.589,38.714 -164.383,52.845 -54.794,-35.04 -109.588,-70.079 -164.383,-94.664 z" /></g></g><g
       transform="translate(-112.72301,-271.37985)"
       id="g19"><g
         id="g21"><path
           style="opacity:0.8;fill:#f69220"
           inkscape:connector-curvature="0"
           id="path23"
           d="m 112.723,284.451 c 55.16,24.749 110.319,68.7 165.479,112.524 54.429,-5.928 108.858,-11.979 163.288,-36.727 -54.794,-16.347 -109.589,-51.644 -164.383,-86.939 -54.795,-2.603 -109.589,-5.205 -164.384,11.142 z" /><path
           style="opacity:0.8;fill:#cc7429"
           inkscape:connector-curvature="0"
           id="path25"
           d="m 112.723,284.451 c 0,1.826 0,3.653 0,5.479 54.794,25.388 109.589,69.725 164.383,114.062 54.794,-6.256 109.589,-12.512 164.383,-37.717 0,-2.009 0,-4.019 0,-6.028 C 386.695,384.832 331.9,390.468 277.106,396.103 222.312,352.57 167.518,309.036 112.723,284.451 Z" /></g></g></g></svg>